<?xml version="1.0" encoding="UTF-8" standalone="no"?><!DOCTYPE svg PUBLIC "-//W3C//DTD SVG 1.1//EN" "http://www.w3.org/Graphics/SVG/1.1/DTD/svg11.dtd"><!-- Generated by graphviz version 2.40.1 (20161225.0304)
 --><!-- Title: G Pages: 1 --><svg xmlns="http://www.w3.org/2000/svg" xmlns:xlink="http://www.w3.org/1999/xlink" width="392pt" height="44pt" viewBox="0.00 0.00 391.51 44.00">
<g id="graph0" class="graph" transform="scale(1 1) rotate(0) translate(4 40)">
<title>G</title>
<polygon fill="transparent" stroke="transparent" points="-4,4 -4,-40 387.5058,-40 387.5058,4 -4,4"/>
<!-- A -->
<g id="node1" class="node">
<title>A</title>
<ellipse fill="none" stroke="#000000" cx="27" cy="-18" rx="27" ry="18"/>
<text text-anchor="middle" x="27" y="-13.8" font-family="Times,serif" font-size="14.00" fill="#000000">Pen</text>
</g>
<!-- Pineapple -->
<g id="node3" class="node">
<title>Pineapple</title>
<ellipse fill="none" stroke="#000000" cx="139.1177" cy="-18" rx="49.2357" ry="18"/>
<text text-anchor="middle" x="139.1177" y="-13.8" font-family="Times,serif" font-size="14.00" fill="#000000">Pineapple</text>
</g>
<!-- A&#45;&#45;Pineapple -->
<g id="edge1" class="edge">
<title>A--Pineapple</title>
<path fill="none" stroke="#000000" d="M54.1406,-18C64.8986,-18 77.6134,-18 89.8852,-18"/>
</g>
<!-- B -->
<g id="node2" class="node">
<title>B</title>
<ellipse fill="none" stroke="#000000" cx="356.5058" cy="-18" rx="27" ry="18"/>
<text text-anchor="middle" x="356.5058" y="-13.8" font-family="Times,serif" font-size="14.00" fill="#000000">Pen</text>
</g>
<!-- Apple -->
<g id="node4" class="node">
<title>Apple</title>
<ellipse fill="none" stroke="#000000" cx="258.8706" cy="-18" rx="34.7709" ry="18"/>
<text text-anchor="middle" x="258.8706" y="-13.8" font-family="Times,serif" font-size="14.00" fill="#000000">Apple</text>
</g>
<!-- Pineapple&#45;&#45;Apple -->
<g id="edge2" class="edge">
<title>Pineapple--Apple</title>
<path fill="none" stroke="#000000" d="M188.5172,-18C200.5008,-18 213.0624,-18 224.2004,-18"/>
</g>
<!-- Apple&#45;&#45;B -->
<g id="edge3" class="edge">
<title>Apple--B</title>
<path fill="none" stroke="#000000" d="M293.568,-18C305.2975,-18 318.217,-18 329.2826,-18"/>
</g>
</g>
</svg>